<?xml version="1.0" standalone="no"?>
<!DOCTYPE svg PUBLIC "-//W3C//DTD SVG 20010904//EN"
 "http://www.w3.org/TR/2001/REC-SVG-20010904/DTD/svg10.dtd">
<svg version="1.0" xmlns="http://www.w3.org/2000/svg"
 width="500.000000pt" height="500.000000pt" viewBox="0 0 500.000000 500.000000"
 preserveAspectRatio="xMidYMid meet">
<metadata>
Created by potrace 1.11, written by Peter Selinger 2001-2013
</metadata>
<g transform="translate(0.000000,500.000000) scale(0.100000,-0.100000)"
fill="#000000" stroke="none">
<path d="M3637 4784 c-1 -1 -51 -4 -110 -7 -59 -4 -111 -9 -116 -11 -4 -3 -20
-7 -35 -10 -51 -9 -211 -57 -276 -83 -281 -111 -551 -285 -784 -506 -33 -33
-60 -64 -58 -70 2 -7 1 -9 -3 -5 -10 9 -45 -24 -38 -35 3 -6 2 -8 -3 -4 -5 3
-27 -17 -49 -44 -22 -27 -58 -69 -80 -94 l-40 -45 -217 -1 c-231 -1 -263 -5
-365 -55 -49 -24 -193 -154 -193 -174 0 -5 -6 -15 -13 -22 -7 -7 -22 -29 -34
-48 -31 -50 -177 -343 -178 -355 0 -5 -4 -13 -10 -17 -5 -4 138 -8 320 -8
l330 0 342 -342 343 -343 0 -327 c0 -181 3 -328 6 -328 10 0 365 182 377 194
7 6 25 18 42 26 26 13 141 122 171 161 9 13 34 58 55 101 22 45 30 130 31 324
l0 212 40 33 c22 19 57 49 77 67 20 19 51 45 68 59 18 14 30 29 27 34 -3 5 -1
8 4 7 10 -3 119 106 175 175 18 21 40 49 51 60 10 12 32 42 49 67 17 25 34 47
37 50 40 31 286 480 263 480 -3 0 -1 6 4 13 18 21 74 207 88 286 3 19 7 37 9
40 16 26 31 520 16 539 -4 5 -316 11 -323 6z m-498 -696 c19 -6 54 -30 77 -54
94 -95 88 -249 -13 -334 -148 -124 -365 -29 -377 165 -10 164 149 277 313 223z"/>
<path d="M1513 2671 c-76 -76 -92 -96 -129 -156 -56 -92 -121 -282 -148 -433
-6 -37 -13 -35 89 -17 127 23 395 128 395 155 0 6 4 9 8 6 11 -6 158 134 154
147 -1 5 2 6 7 3 5 -4 12 -2 16 3 3 6 -71 86 -164 180 l-170 170 -58 -58z"/>
<path d="M1281 1358 c-44 -12 -81 -37 -81 -53 0 -7 -6 -15 -12 -17 -10 -4 -14
-81 -16 -334 -2 -314 -1 -331 18 -370 35 -70 147 -99 264 -69 52 14 101 58 91
83 -2 6 -1 12 4 12 5 0 9 59 9 130 l1 130 -75 0 -74 0 0 -104 c0 -95 -2 -106
-21 -120 -16 -11 -27 -12 -43 -4 -22 10 -22 11 -23 294 l0 284 25 7 c52 13 59
-3 61 -144 l1 -63 74 0 73 0 1 108 c1 125 -8 170 -42 199 -46 40 -155 54 -235
31z"/>
<path d="M1650 935 l0 -425 75 0 c64 0 75 2 76 18 1 9 1 88 1 175 0 86 4 158
9 158 5 1 20 2 34 2 14 0 30 -1 35 -2 6 -1 10 -67 10 -176 l0 -175 74 0 c74 0
75 0 78 27 2 16 2 207 0 426 l-2 397 -75 0 -75 0 -2 -172 -3 -172 -27 1 c-16
1 -34 1 -42 2 -11 1 -14 32 -14 159 0 86 0 163 -1 170 -1 8 -23 12 -76 12
l-75 0 0 -425z"/>
<path d="M2216 1318 c-3 -24 -8 -69 -11 -101 -3 -32 -7 -62 -9 -65 -2 -4 -7
-38 -10 -77 -4 -38 -9 -77 -11 -85 -2 -8 -7 -37 -10 -65 -3 -27 -7 -63 -10
-80 -2 -16 -7 -55 -10 -86 -3 -31 -8 -67 -10 -80 -3 -13 -7 -49 -10 -80 -2
-31 -7 -63 -11 -72 -5 -15 3 -17 70 -17 l76 0 1 33 c1 17 3 39 4 47 1 8 3 24
4 36 1 18 8 21 52 21 29 1 52 -4 54 -11 4 -10 13 -82 14 -113 1 -9 24 -13 82
-13 l82 0 -7 48 c-4 26 -9 70 -12 97 -3 28 -7 61 -10 75 -2 14 -7 48 -9 75 -3
28 -7 59 -9 70 -2 12 -7 48 -11 80 -4 33 -8 71 -11 85 -5 35 -11 81 -24 185
-7 50 -13 99 -14 110 -3 18 -12 20 -113 23 l-111 3 -6 -43z"/>
<path d="M2609 1353 c-1 -11 -1 -115 0 -130 1 -9 18 -13 51 -13 l50 0 0 -350
0 -351 77 3 77 3 -1 348 0 347 53 0 53 0 0 75 0 75 -179 0 c-99 0 -180 -3
-181 -7z"/>
<path d="M3049 1348 c-4 -11 -3 -761 0 -820 1 -16 15 -18 151 -18 83 0 150 3
151 8 1 4 2 37 3 75 l1 67 -77 0 c-55 0 -78 4 -79 13 0 6 -2 163 -2 347 l-2
335 -71 3 c-52 2 -73 -1 -75 -10z"/>
<path d="M3410 1346 c0 -7 11 -58 25 -112 32 -129 86 -353 91 -379 2 -11 9
-40 16 -65 7 -25 13 -96 13 -161 l-1 -116 76 -2 76 -2 0 113 c-1 83 4 135 20
198 12 47 40 166 63 265 24 99 47 193 52 209 20 63 17 66 -70 66 -57 0 -78 -3
-78 -12 1 -11 -14 -132 -18 -148 -1 -3 -5 -32 -10 -65 -4 -33 -9 -67 -11 -75
-1 -8 -3 -27 -3 -42 -2 -59 -19 -24 -31 60 -6 48 -13 98 -15 111 -3 13 -7 45
-10 70 -15 110 -6 101 -101 101 -64 0 -84 -3 -84 -14z"/>
</g>
</svg>
